<svg viewBox="0 0 51 51" xmlns="http://www.w3.org/2000/svg"><path d="m11.59 34.69c1.12 5.86 5.52 9.31 5.52 9.31h17.25s4.4-3.45 5.52-9.31z"/><path d="m11.13 21.92v-9.01c0-.61.25-1.19.69-1.62l3.78-3.62c.45-.43 1.05-.67 1.67-.67h17.05s1.9.43 1.9 3.06-1.77 2.93-1.77 2.93h-18.06s-2.41.47-2.41 2.67-.01 3.8-2.85 6.26z"/><path d="m35.31 20.73h.02c0-5.66-3.74-5.66-3.74-5.66h-11.69s-3.74 0-3.74 5.66h-.01s-4.56 3.23-4.56 10.35h28.29c-.01-7.59-4.57-10.35-4.57-10.35zm-13.46 7.64h-2.59v-2.59h2.59zm0-5.17h-2.59v-2.59h2.59zm5.17 5.17h-2.59v-2.59h2.59zm0-5.17h-2.59v-2.59h2.59zm5.18 5.17h-2.59v-2.59h2.59zm0-5.17h-2.59v-2.59h2.59z"/></svg>